<?xml version="1.0" encoding="UTF-8"?>
<svg xmlns="http://www.w3.org/2000/svg" version="1.1" viewBox="0 0 512 512">
  <defs>
    <style>
      .cls-1 {
        fill: #fff;
      }
    </style>
  </defs>
  <!-- Generator: Adobe Illustrator 28.6.0, SVG Export Plug-In . SVG Version: 1.2.0 Build 709)  -->
  <g>
    <g id="Layer_1">
      <path class="cls-1" d="M256,398.8c-11.8,5.1-23.4,9.7-34.9,13.5,16.7,33.8,31,35.7,34.9,35.7s18.1-1.9,34.9-35.7c-11.4-3.9-23.1-8.4-34.9-13.5ZM446,256c33,45.2,44.3,90.9,23.6,128-20.2,36.3-62.5,49.3-115.2,43.2-22,52.1-55.6,84.8-98.4,84.8s-76.4-32.7-98.4-84.8c-52.7,6.1-95-6.8-115.2-43.2-20.7-37.1-9.4-82.8,23.6-128-33-45.2-44.3-90.9-23.6-128,20.2-36.3,62.5-49.3,115.2-43.2C179.6,32.7,213.2,0,256,0s76.4,32.7,98.4,84.8c52.7-6.1,95,6.8,115.2,43.2,20.7,37.1,9.4,82.8-23.6,128h0ZM380.2,323.4c-1.7,14.2-3.9,28-6.7,41.2,31.8,1.4,38.6-8.7,40.2-11.7,2.3-4.2,7-17.9-11.9-48.1-6.8,6.3-14,12.5-21.6,18.6ZM373.5,147.5c2.8,13.1,5,26.9,6.7,41.2,7.6,6.1,14.8,12.3,21.6,18.6,18.9-30.2,14.2-44,11.9-48.1-1.6-2.9-8.4-13-40.2-11.7h0ZM290.9,99.7c-16.8-33.8-31-35.7-34.9-35.7s-18.1,1.9-34.9,35.7c11.4,3.9,23.1,8.4,34.9,13.5,11.8-5.1,23.4-9.7,34.9-13.5ZM131.9,188.6c1.7-14.3,3.9-28,6.7-41.2-31.8-1.4-38.6,8.7-40.2,11.7-2.3,4.2-7,17.9,11.9,48.1,6.8-6.3,14-12.5,21.6-18.6ZM110.2,304.8c-18.8,30.2-14.2,43.9-11.9,48.1,1.6,2.9,8.4,13,40.2,11.7-2.8-13.1-5-26.9-6.7-41.2-7.6-6.1-14.8-12.3-21.6-18.6ZM336,256c0-44.2-35.8-80-80-80s-80,35.8-80,80,35.8,80,80,80,80-35.8,80-80ZM256,224c17.7,0,32,14.3,32,32s-14.3,32-32,32-32-14.3-32-32,14.3-32,32-32Z"/>
    </g>
  </g>
</svg>