<?xml version="1.0" encoding="UTF-8"?>
<svg xmlns="http://www.w3.org/2000/svg" version="1.1" viewBox="0 0 640 512">
  <defs>
    <style>
      .cls-1 {
        fill: #fff;
      }
    </style>
  </defs>
  <!-- Generator: Adobe Illustrator 28.6.0, SVG Export Plug-In . SVG Version: 1.2.0 Build 709)  -->
  <g>
    <g id="Layer_1">
      <path class="cls-1" d="M175,389.4c-9.8,16-15,34.3-15,53.1-10,3.5-20.8,5.5-32,5.5-53,0-96-43-96-96V64C14.3,64,0,49.7,0,32S14.3,0,32,0h192c17.7,0,32,14.3,32,32s-14.3,32-32,32v245.9l-49,79.6h0ZM96,64v96h64v-96h-64ZM352,0h160c17.7,0,32,14.3,32,32s-14.3,32-32,32v150.9l117.7,191.3c6.7,10.9,10.3,23.5,10.3,36.4,0,38.3-31.1,69.4-69.4,69.4h-309.2c-38.3,0-69.4-31.1-69.4-69.4s3.6-25.4,10.3-36.4l117.7-191.3V64c-17.7,0-32-14.3-32-32S302.3,0,320,0h32ZM384,64v160c0,5.9-1.6,11.7-4.7,16.8l-48.8,79.2h171l-48.8-79.2c-3.1-5-4.7-10.8-4.7-16.8V64h-64Z"/>
    </g>
  </g>
</svg>